<svg width="1440" height="1024" viewBox="0 0 1440 1024" fill="none" xmlns="http://www.w3.org/2000/svg">
<rect x="185" y="718" width="1255" height="306" fill="#81ADB9"/>
<rect width="1440" height="575" fill="url(#paint0_linear_7_374)"/>
<path d="M0 543.349L349.714 515.014L866.523 543.219C868.101 543.305 869.683 543.204 871.237 542.918L1016.52 516.152C1020.62 515.396 1024.8 515.157 1028.96 515.439L1149.2 523.603C1154.94 523.993 1160.71 523.389 1166.25 521.816L1313.41 480.019C1329.62 475.415 1346.73 474.982 1363.16 478.763L1440 496.45V686H0V543.349Z" fill="#A4C8CC"/>
<path d="M1565 1024H125V713L710.5 739C560 743 479.209 752.176 410.901 765.085C315.815 783.055 338.254 808.516 340 817C359.5 881.5 1360.57 909.137 1565 922.5V1024Z" fill="#CDA265"/>
<path d="M1440 1024H0V682.5L828.5 742C678 746 354.209 752.176 285.901 765.085C190.815 783.055 213.254 808.516 215 817C227.5 927 1235.57 943.637 1440 957V1024Z" fill="#E2BB7D"/>
<path d="M1453.96 345H1108C1105.24 345 1103.3 342.676 1105.13 340.61C1115.49 328.922 1161.23 312.765 1187.45 304.773C1189.03 304.289 1190.29 303.055 1190.75 301.46C1197.1 279.643 1195.62 263.94 1203.43 251.978C1231.04 209.635 1302.27 225.174 1305.43 255.131C1309.38 272.197 1313.6 275.5 1318.79 283.946C1320.54 286.797 1324.53 287.485 1327.13 285.391C1360.2 258.863 1377.08 288.875 1382.6 312.007C1383.29 314.883 1386.2 316.707 1389.09 316.075C1424.95 308.226 1447.58 324.589 1457.77 338.195C1459.98 341.161 1457.67 345 1453.96 345Z" fill="url(#paint1_linear_7_374)"/>
<path d="M1119.5 437H933C930.239 437 928.438 434.704 930.386 432.747C937.667 425.431 959.946 416.058 973.74 411.021C975.293 410.454 976.478 409.175 976.858 407.566C980.128 393.73 979.434 383.704 983.667 376.027C998.974 348.273 1038.46 358.459 1040.21 378.094C1041.94 386.934 1043.77 390.14 1045.87 393.829C1047.69 397.005 1052.23 397.686 1055.12 395.439C1070.69 383.315 1079.17 399.183 1082.49 413.086C1083.2 416.104 1086.31 417.999 1089.36 417.414C1106.2 414.183 1117.41 422.539 1123.27 430.519C1125.38 433.394 1123.07 437 1119.5 437Z" fill="url(#paint2_linear_7_374)"/>
<path d="M466.502 354H280C277.239 354 275.438 351.704 277.386 349.747C284.667 342.431 306.946 333.058 320.74 328.021C322.293 327.454 323.478 326.175 323.858 324.566C327.128 310.73 326.434 300.704 330.667 293.027C345.974 265.273 385.458 275.459 387.211 295.094C388.942 303.934 390.766 307.14 392.874 310.829C394.689 314.005 399.234 314.686 402.121 312.439C417.694 300.315 426.174 316.183 429.486 330.086C430.205 333.104 433.315 334.999 436.362 334.414C453.203 331.183 464.41 339.539 470.273 347.519C472.385 350.394 470.069 354 466.502 354Z" fill="url(#paint3_linear_7_374)"/>
<path d="M233.965 458H-112C-114.761 458 -116.704 455.676 -114.872 453.61C-104.509 441.922 -58.7747 425.765 -32.5544 417.773C-30.9652 417.289 -29.7128 416.055 -29.2487 414.46C-22.902 392.643 -24.3763 376.94 -16.5749 364.978C11.0388 322.635 82.2687 338.174 85.4317 368.131C89.3821 385.197 93.6035 388.5 98.7882 396.946C100.538 399.797 104.525 400.485 107.135 398.391C140.197 371.863 157.081 401.875 162.603 425.007C163.29 427.883 166.202 429.707 169.091 429.075C204.95 421.226 227.584 437.589 237.765 451.195C239.984 454.161 237.668 458 233.965 458Z" fill="url(#paint4_linear_7_374)"/>
<path d="M1277.54 552C1247.14 552 1221.72 561.505 1215.47 574.205C1206.38 570.936 1194.81 568.978 1182.22 568.978C1152.97 568.978 1129.26 579.534 1129.26 592.557C1129.26 593.182 1129.32 593.803 1129.42 594.416C1118.8 595.776 1109.55 598.578 1102.8 602.313C1090.07 594.676 1069.66 589.728 1046.65 589.728C1008.04 589.728 976.747 603.663 976.747 620.853C976.747 621.878 976.86 622.892 977.078 623.893C966.601 618.018 950.421 614.25 932.264 614.25C925.784 614.25 919.556 614.73 913.749 615.614C905.575 605.998 884.703 599.159 860.243 599.159C844.859 599.159 830.895 601.865 820.615 606.265C812.491 596.605 791.569 589.728 767.039 589.728C735.452 589.728 709.847 601.129 709.847 615.193C709.847 617.058 710.297 618.876 711.151 620.627C689.432 622.972 672.559 630.835 668.446 640.696C667.425 640.672 666.398 640.659 665.363 640.659C644.766 640.659 626.713 645.509 616.644 652.782C606.574 645.509 588.521 640.659 567.924 640.659C538.879 640.659 514.893 650.3 511.22 662.786C502.937 660.709 493.376 659.522 483.192 659.522C453.794 659.523 429.577 669.4 426.363 682.107L426 682.159V718H1447V589.728L1447 589.361C1446.56 573.903 1418.27 561.432 1383.45 561.432C1365.16 561.432 1348.67 564.876 1337.08 570.384C1328.06 559.645 1304.8 552 1277.54 552Z" fill="#81A7AA"/>
<path d="M1277.54 629C1247.14 629 1221.73 634.098 1215.47 640.906C1206.38 639.153 1194.81 638.103 1182.22 638.103C1152.97 638.103 1129.26 643.762 1129.26 650.744C1129.26 651.08 1129.32 651.412 1129.42 651.741C1118.8 652.47 1109.55 653.973 1102.8 655.976C1090.07 651.881 1069.66 649.228 1046.65 649.228C1008.04 649.228 976.747 656.699 976.747 665.915C976.747 666.465 976.86 667.008 977.078 667.545C966.601 664.395 950.421 662.375 932.264 662.375C925.784 662.375 919.556 662.632 913.749 663.106C905.574 657.951 884.702 654.284 860.243 654.284C844.86 654.284 830.895 655.735 820.615 658.094C812.49 652.915 791.568 649.228 767.039 649.228C735.452 649.228 709.847 655.34 709.847 662.881C709.847 663.881 710.3 664.854 711.156 665.793C689.438 667.049 672.565 671.267 668.449 676.554C667.427 676.541 666.399 676.534 665.363 676.534C644.767 676.534 626.713 679.134 616.644 683.033C606.574 679.134 588.521 676.534 567.924 676.534C538.879 676.534 514.892 681.703 511.219 688.397C502.937 687.284 493.375 686.647 483.192 686.647C453.795 686.648 429.579 691.943 426.363 698.756L426 698.784V718H1447V649.228L1447 649.031C1446.56 640.743 1418.27 634.057 1383.45 634.057C1365.16 634.057 1348.67 635.903 1337.08 638.856C1328.06 633.1 1304.8 629 1277.54 629Z" fill="#6B9487"/>
<path d="M604.733 720.823L652.57 741.284L483.741 743.896L470.727 725.44L442.533 713.156L425.85 676.948L388.127 652.091L372.97 604.835C345.534 586.603 344.305 562.029 340.063 562.095C336.669 562.147 333.53 523.751 332.384 504.547C331.548 494.383 310.097 471.818 299.477 461.806C301.387 453.636 312.104 449.535 320 448L357.246 466.001L411.022 486.37L425.707 503.104L447.962 515.48L462.1 551.727C482.66 564.299 486.576 597.99 485.963 613.264C523.117 645.254 530.893 665.147 530.136 671.095L540.422 677.72C545.83 676.28 585.549 705.856 604.733 720.823Z" fill="#7B8E5D"/>
<path d="M446.61 712.803C460.181 713.27 479.7 732.877 487.763 742.621L160.558 744.298L201.674 552.475L218.923 516.678L233.564 476.692L282.303 448.867L320.443 448.277L303.714 462.917L334.736 495.43L343.437 564.664L375.371 601.393L390.565 651.915C428.055 664.194 443.549 697.623 446.61 712.803Z" fill="#58755A"/>
<path d="M113.618 614C122.878 614 130.619 621.444 132.524 631.39C135.293 628.829 138.817 627.296 142.653 627.296C151.562 627.296 158.784 635.563 158.784 645.762C158.784 646.251 158.767 646.737 158.734 647.217C161.97 648.282 164.787 650.477 166.843 653.402C170.723 647.421 176.94 643.546 183.948 643.546C195.708 643.546 205.24 654.459 205.24 667.921C205.24 668.725 205.205 669.519 205.139 670.303C208.33 665.701 213.259 662.75 218.79 662.75C220.764 662.75 222.661 663.126 224.43 663.818C226.919 656.287 233.277 650.932 240.729 650.932C245.414 650.932 249.668 653.05 252.799 656.495C255.274 648.931 261.646 643.546 269.118 643.546C278.74 643.546 286.539 652.474 286.539 663.488C286.539 664.949 286.401 666.372 286.141 667.743C292.757 669.579 297.897 675.738 299.149 683.461C299.46 683.442 299.774 683.432 300.089 683.432C306.363 683.432 311.862 687.23 314.929 692.926C317.996 687.229 323.495 683.432 329.77 683.432C338.617 683.432 345.922 690.981 347.041 700.76C349.564 699.133 352.477 698.204 355.579 698.204C364.534 698.204 371.908 705.939 372.888 715.891L373 715.932V744H62V643.546L62.0059 642.974C62.2708 631 70.8331 621.387 81.3564 621.387C86.9287 621.387 91.9506 624.082 95.4824 628.396C98.2303 619.987 105.313 614 113.618 614Z" fill="#607E60"/>
<path d="M-225.685 614C-210.559 614 -197.915 621.445 -194.803 631.391C-190.28 628.83 -184.524 627.296 -178.257 627.296C-163.705 627.296 -151.909 635.563 -151.909 645.762C-151.909 646.251 -151.937 646.737 -151.99 647.217C-146.705 648.282 -142.103 650.477 -138.745 653.402C-132.407 647.421 -122.252 643.546 -110.805 643.546C-91.5963 643.546 -76.0254 654.459 -76.0254 667.921C-76.0254 668.725 -76.0819 669.519 -76.1904 670.303C-70.9776 665.701 -62.9263 662.75 -53.8916 662.75C-50.668 662.75 -47.5696 663.126 -44.6807 663.818C-40.6141 656.287 -30.2283 650.932 -18.0576 650.932C-10.4033 650.932 -3.45528 653.051 1.65918 656.496C5.70149 648.931 16.1104 643.546 28.3154 643.546C44.0312 643.546 56.7712 652.474 56.7715 663.488C56.7715 664.949 56.5453 666.372 56.1201 667.743C66.9276 669.579 75.3225 675.738 77.3691 683.461C77.8774 683.442 78.3893 683.432 78.9043 683.432C89.1526 683.432 98.1345 687.23 103.145 692.926C108.154 687.229 117.137 683.432 127.386 683.432C141.837 683.432 153.77 690.982 155.598 700.76C159.719 699.133 164.477 698.204 169.544 698.204C184.171 698.204 196.218 705.939 197.817 715.891L198 715.932V717.3C199.29 717.103 200.628 717 202 717C212.493 717 221 723.044 221 730.5C221 737.956 212.493 744 202 744C200.628 744 199.29 743.895 198 743.698V744H-310V643.546L-309.989 642.974C-309.556 631 -295.571 621.387 -278.382 621.387C-269.28 621.387 -261.077 624.083 -255.308 628.397C-250.819 619.988 -239.25 614 -225.685 614Z" fill="#859356"/>
<path d="M304.029 452.63H298.529V444.63C298.5 441.13 296 440.63 294.029 440.13C288.5 438.63 283.029 432.797 281.029 429.13L280.5 423.63L281.029 418.13C281.029 416.13 283.363 411.963 284.529 410.13C286.129 408.93 282.196 408.297 280.029 408.13L283.529 405.13V403.13C280.329 403.13 279.863 400.13 280.029 398.63H285.529C284.729 392.63 286.863 394.797 288.029 396.63L289.529 395.63C293.529 387.63 296.029 395.13 295.529 396.63C295.129 397.83 293.696 400.797 293.029 402.13L296.529 410.63L297.029 417.13C299.029 420.73 302.196 421.297 303.529 421.13C323.929 397.13 334.5 407.63 335.5 416.63C332.5 412.13 329.029 413.797 327.029 414.63C331.429 415.43 331.529 420.63 331.029 423.13C328.229 417.53 325.863 419.463 325.029 421.13C329.029 422.33 329.029 426.963 328.529 429.13C323.729 423.13 322.529 429.63 322.529 433.63C320.929 431.63 315.529 432.797 313.029 433.63L312.529 438.13L304.029 444.13V452.63Z" fill="#58755A"/>
<rect width="15" height="101" rx="2" transform="matrix(-0.994664 0.10317 0.10317 0.994664 1377.58 868)" fill="url(#paint5_linear_7_374)"/>
<rect width="123.706" height="80.4406" rx="2" transform="matrix(-0.993602 0.112938 0.112938 0.993602 1422.91 789)" fill="#FFD99D"/>
<path d="M1335.96 831.167L1336.37 833.724C1335.89 833.906 1335.41 834.082 1334.93 834.251C1334.45 834.421 1333.97 834.58 1333.48 834.73C1332.97 834.883 1332.45 835.03 1331.94 835.172C1331.42 835.314 1330.9 835.429 1330.38 835.517C1330.23 835.542 1330 835.574 1329.71 835.612C1329.41 835.651 1329.1 835.68 1328.78 835.7C1328.46 835.72 1328.15 835.732 1327.86 835.736C1327.56 835.728 1327.35 835.698 1327.2 835.643C1327.07 835.587 1326.94 835.519 1326.81 835.438C1326.69 835.348 1326.57 835.255 1326.47 835.16C1326.19 834.915 1325.95 834.635 1325.74 834.323C1325.53 834.01 1325.35 833.68 1325.2 833.335C1325.05 832.989 1324.93 832.634 1324.82 832.27C1324.73 831.905 1324.65 831.542 1324.59 831.182C1324.52 830.745 1324.46 830.288 1324.43 829.811C1324.4 829.333 1324.41 828.855 1324.44 828.379C1324.47 827.902 1324.54 827.436 1324.65 826.981C1324.76 826.524 1324.92 826.094 1325.12 825.69C1325.18 825.579 1325.26 825.443 1325.35 825.281C1325.45 825.119 1325.55 824.995 1325.66 824.909C1325.93 824.696 1326.23 824.505 1326.58 824.336C1326.93 824.165 1327.3 824.019 1327.68 823.899C1328.06 823.768 1328.44 823.659 1328.82 823.574C1329.21 823.475 1329.57 823.399 1329.9 823.344C1330.52 823.24 1331.15 823.174 1331.78 823.147C1332.41 823.109 1333.04 823.127 1333.66 823.204C1333.69 823.502 1333.72 823.805 1333.76 824.113C1333.8 824.409 1333.84 824.705 1333.89 825C1334.01 825.709 1334.15 826.421 1334.3 827.136C1333.78 827.033 1333.24 826.988 1332.69 827C1332.14 827.002 1331.61 827.047 1331.08 827.135C1330.97 827.153 1330.82 827.19 1330.61 827.247C1330.41 827.292 1330.18 827.353 1329.92 827.43C1329.66 827.495 1329.4 827.574 1329.12 827.665C1328.85 827.754 1328.61 827.851 1328.38 827.957C1328.15 828.063 1327.95 828.175 1327.78 828.293C1327.62 828.409 1327.52 828.521 1327.48 828.629C1327.45 828.723 1327.43 828.855 1327.43 829.024C1327.43 829.181 1327.44 829.348 1327.44 829.527C1327.46 829.703 1327.48 829.874 1327.5 830.04C1327.52 830.204 1327.54 830.335 1327.56 830.433C1327.58 830.531 1327.62 830.726 1327.69 831.017C1327.76 831.308 1327.84 831.62 1327.93 831.953C1328.02 832.275 1328.11 832.569 1328.2 832.834C1328.3 833.098 1328.38 833.247 1328.44 833.282C1328.5 833.305 1328.59 833.313 1328.71 833.304C1328.84 833.282 1328.93 833.267 1328.98 833.26C1329.51 833.171 1330.08 833.048 1330.68 832.891C1331.28 832.734 1331.89 832.56 1332.5 832.369C1333.11 832.165 1333.72 831.963 1334.31 831.763C1334.91 831.551 1335.46 831.353 1335.96 831.167ZM1339.32 821.652C1339.41 822.725 1339.5 823.793 1339.59 824.856C1339.69 825.917 1339.8 826.981 1339.92 828.049C1340.03 829.019 1340.13 829.984 1340.22 830.945C1340.32 831.893 1340.43 832.851 1340.53 833.821L1338.05 834.371C1337.88 833.377 1337.72 832.395 1337.56 831.423C1337.4 830.439 1337.23 829.452 1337.04 828.462C1336.86 827.472 1336.65 826.497 1336.42 825.536C1336.19 824.565 1335.96 823.588 1335.73 822.605L1339.32 821.652ZM1353.85 825.504C1353.87 825.591 1353.88 825.678 1353.9 825.766C1353.91 825.842 1353.92 825.925 1353.92 826.014C1353.94 826.169 1353.95 826.424 1353.97 826.781C1353.98 827.138 1353.98 827.513 1353.97 827.908C1353.95 828.292 1353.92 828.651 1353.86 828.986C1353.81 829.321 1353.72 829.543 1353.6 829.652C1353.55 829.707 1353.33 829.782 1352.95 829.879C1352.59 829.974 1352.13 830.083 1351.59 830.207C1351.06 830.329 1350.48 830.454 1349.85 830.581C1349.22 830.709 1348.62 830.832 1348.05 830.95C1347.48 831.056 1346.98 831.151 1346.55 831.235C1346.12 831.317 1345.84 831.37 1345.7 831.393C1345.63 831.404 1345.52 831.423 1345.35 831.451C1345.2 831.476 1345.04 831.504 1344.86 831.533C1344.69 831.551 1344.52 831.567 1344.37 831.582C1344.21 831.597 1344.1 831.598 1344.03 831.588C1343.87 831.558 1343.7 831.497 1343.53 831.402C1343.35 831.297 1343.19 831.178 1343.03 831.047C1342.87 830.906 1342.73 830.762 1342.59 830.616C1342.46 830.458 1342.36 830.306 1342.29 830.161C1342.24 830.046 1342.18 829.87 1342.12 829.634C1342.06 829.387 1342 829.133 1341.94 828.873C1341.89 828.601 1341.83 828.341 1341.78 828.092C1341.74 827.841 1341.71 827.65 1341.68 827.519C1341.65 827.312 1341.61 827.027 1341.56 826.665C1341.51 826.292 1341.48 825.91 1341.47 825.518C1341.46 825.127 1341.48 824.76 1341.52 824.416C1341.57 824.059 1341.69 823.799 1341.86 823.635C1341.94 823.566 1342.09 823.489 1342.33 823.406C1342.56 823.322 1342.84 823.236 1343.16 823.149C1343.48 823.061 1343.83 822.981 1344.2 822.908C1344.56 822.825 1344.92 822.753 1345.27 822.695C1345.63 822.624 1345.96 822.563 1346.27 822.512C1346.57 822.461 1346.82 822.425 1347.01 822.405C1347.17 822.389 1347.41 822.361 1347.72 822.32C1348.02 822.269 1348.36 822.218 1348.73 822.167C1349.12 822.114 1349.52 822.071 1349.92 822.036C1350.33 821.99 1350.71 821.96 1351.07 821.946C1351.43 821.931 1351.74 821.94 1352.02 821.973C1352.3 821.992 1352.5 822.044 1352.6 822.128C1352.77 822.257 1352.92 822.467 1353.06 822.758C1353.2 823.049 1353.32 823.366 1353.42 823.708C1353.53 824.037 1353.62 824.37 1353.69 824.707C1353.76 825.031 1353.82 825.296 1353.85 825.504ZM1350.44 826.427C1350.42 826.296 1350.39 826.144 1350.35 825.971C1350.31 825.799 1350.26 825.627 1350.21 825.456C1350.16 825.274 1350.1 825.105 1350.02 824.948C1349.95 824.781 1349.87 824.648 1349.79 824.55C1349.68 824.422 1349.49 824.341 1349.23 824.307C1348.96 824.272 1348.68 824.264 1348.36 824.283C1348.06 824.288 1347.76 824.31 1347.47 824.348C1347.18 824.385 1346.97 824.415 1346.83 824.439C1346.75 824.451 1346.61 824.48 1346.42 824.523C1346.22 824.556 1346.02 824.596 1345.8 824.644C1345.59 824.689 1345.4 824.744 1345.22 824.808C1345.04 824.86 1344.92 824.908 1344.87 824.95C1344.79 825.032 1344.73 825.148 1344.7 825.299C1344.66 825.439 1344.64 825.594 1344.64 825.763C1344.64 825.93 1344.66 826.097 1344.67 826.263C1344.7 826.415 1344.72 826.541 1344.74 826.639C1344.75 826.737 1344.79 826.917 1344.84 827.177C1344.91 827.424 1344.97 827.693 1345.04 827.985C1345.12 828.263 1345.21 828.519 1345.29 828.751C1345.37 828.984 1345.45 829.128 1345.53 829.183C1345.62 829.257 1345.78 829.304 1345.99 829.324C1346.22 829.342 1346.46 829.353 1346.7 829.357C1346.96 829.348 1347.21 829.335 1347.44 829.318C1347.67 829.291 1347.83 829.269 1347.93 829.253C1348.11 829.224 1348.31 829.184 1348.55 829.133C1348.79 829.081 1349.03 829.014 1349.26 828.93C1349.5 828.845 1349.73 828.745 1349.93 828.633C1350.14 828.52 1350.3 828.387 1350.4 828.234C1350.47 828.145 1350.51 828.02 1350.53 827.86C1350.55 827.7 1350.55 827.531 1350.54 827.352C1350.54 827.174 1350.52 827.003 1350.49 826.839C1350.47 826.663 1350.46 826.525 1350.44 826.427ZM1364.11 827.476L1364.32 830.405C1363.97 830.485 1363.62 830.56 1363.28 830.629C1362.93 830.709 1362.58 830.778 1362.23 830.837C1362.05 830.868 1361.8 830.903 1361.49 830.943C1361.19 830.984 1360.87 831.02 1360.54 831.053C1360.2 831.075 1359.89 831.089 1359.58 831.094C1359.28 831.089 1359.03 831.062 1358.85 831.015C1358.56 830.939 1358.32 830.817 1358.11 830.65C1357.92 830.481 1357.74 830.29 1357.6 830.079C1357.45 829.858 1357.32 829.621 1357.21 829.37C1357.1 829.108 1357 828.849 1356.93 828.592C1356.85 828.347 1356.78 828.084 1356.71 827.804C1356.65 827.511 1356.59 827.212 1356.53 826.908C1356.48 826.603 1356.43 826.308 1356.38 826.024C1356.33 825.729 1356.29 825.456 1356.24 825.205L1356.16 824.714L1355.15 824.884C1355.11 824.385 1355.05 823.896 1354.97 823.415C1354.9 822.933 1354.85 822.443 1354.81 821.944L1355.8 821.813L1355.39 819.39C1356.03 819.406 1356.66 819.368 1357.27 819.277C1357.9 819.173 1358.52 819.091 1359.15 819.031L1359.54 821.542L1360.93 821.394C1360.94 821.47 1360.95 821.541 1360.96 821.607C1360.98 821.67 1361 821.74 1361.01 821.817C1361.06 822.123 1361.09 822.427 1361.08 822.731C1361.09 823.022 1361.07 823.322 1361.05 823.629L1359.85 823.829C1359.91 824.335 1359.98 824.839 1360.05 825.343C1360.13 825.847 1360.21 826.35 1360.29 826.853C1360.33 827.093 1360.37 827.31 1360.42 827.505C1360.47 827.687 1360.54 827.838 1360.63 827.958C1360.72 828.076 1360.86 828.154 1361.04 828.192C1361.21 828.231 1361.44 828.225 1361.74 828.176C1362.14 828.108 1362.54 828.014 1362.94 827.892C1363.33 827.77 1363.72 827.631 1364.11 827.476ZM1374.62 822.137C1374.68 822.541 1374.73 822.955 1374.74 823.379C1374.76 823.79 1374.78 824.202 1374.79 824.616C1374.83 825.34 1374.85 826.06 1374.85 826.777C1374.86 827.483 1374.87 828.2 1374.88 828.928C1374.34 829.028 1373.82 829.137 1373.31 829.256C1372.81 829.374 1372.29 829.499 1371.78 829.63C1371.64 828.833 1371.51 828.047 1371.38 827.272C1371.25 826.486 1371.11 825.703 1370.94 824.922C1370.92 824.77 1370.88 824.574 1370.83 824.336C1370.79 824.095 1370.73 823.903 1370.66 823.757C1370.56 823.517 1370.44 823.361 1370.33 823.29C1370.22 823.209 1370.02 823.191 1369.73 823.239C1369.54 823.272 1369.31 823.332 1369.06 823.419C1368.8 823.507 1368.54 823.606 1368.28 823.717C1368.02 823.828 1367.77 823.948 1367.53 824.077C1367.31 824.194 1367.12 824.31 1366.97 824.424C1367.03 825.323 1367.07 826.22 1367.08 827.115C1367.11 828.009 1367.18 828.906 1367.3 829.806L1364.97 830.077C1364.52 828.132 1364.08 826.197 1363.65 824.272C1363.21 822.337 1362.78 820.394 1362.35 818.446L1365.92 817.615C1366.02 818.339 1366.11 819.063 1366.21 819.787C1366.31 820.501 1366.41 821.219 1366.51 821.943C1366.68 821.734 1366.9 821.564 1367.14 821.433C1367.39 821.291 1367.65 821.181 1367.91 821.102C1368.19 821.022 1368.47 820.958 1368.76 820.911C1369.04 820.864 1369.31 820.818 1369.58 820.774C1369.97 820.709 1370.41 820.651 1370.91 820.602C1371.42 820.54 1371.9 820.537 1372.37 820.593C1372.85 820.637 1373.29 820.766 1373.68 820.98C1374.08 821.195 1374.38 821.538 1374.58 822.009C1374.59 822.029 1374.6 822.05 1374.61 822.072C1374.61 822.094 1374.61 822.116 1374.62 822.137ZM1378.14 816.852C1378.18 817.071 1378.17 817.286 1378.1 817.499C1378.04 817.699 1377.95 817.884 1377.81 818.053C1377.68 818.221 1377.52 818.365 1377.34 818.485C1377.16 818.594 1376.97 818.665 1376.77 818.698C1376.55 818.734 1376.34 818.72 1376.12 818.654C1375.92 818.587 1375.74 818.489 1375.57 818.36C1375.4 818.231 1375.26 818.074 1375.15 817.89C1375.04 817.696 1374.97 817.495 1374.93 817.287C1374.9 817.08 1374.91 816.883 1374.95 816.695C1375.01 816.495 1375.09 816.318 1375.2 816.166C1375.32 816.011 1375.46 815.881 1375.62 815.775C1375.8 815.668 1375.99 815.597 1376.19 815.562C1376.4 815.527 1376.61 815.537 1376.82 815.592C1377.04 815.634 1377.24 815.718 1377.42 815.846C1377.61 815.96 1377.77 816.107 1377.9 816.288C1378.03 816.457 1378.11 816.645 1378.14 816.852ZM1379.28 819.524C1379.32 820.112 1379.37 820.692 1379.44 821.265C1379.5 821.838 1379.56 822.411 1379.62 822.985C1379.69 823.658 1379.72 824.331 1379.72 825.004C1379.74 825.676 1379.73 826.35 1379.71 827.027L1377.25 827.707C1377.19 827.358 1377.13 827.014 1377.07 826.675C1377.03 826.335 1376.98 825.99 1376.92 825.641C1376.77 824.746 1376.6 823.853 1376.42 822.964C1376.24 822.074 1376.06 821.184 1375.87 820.295C1376.45 820.176 1377.01 820.049 1377.56 819.912C1378.12 819.774 1378.69 819.644 1379.28 819.524ZM1391.25 820.926C1391.3 821.221 1391.35 821.521 1391.4 821.826C1391.45 822.121 1391.48 822.418 1391.51 822.716L1387.9 823.555C1387.85 822.98 1387.79 822.413 1387.71 821.852C1387.65 821.29 1387.58 820.72 1387.48 820.141C1387.47 820.086 1387.45 819.994 1387.43 819.863C1387.41 819.732 1387.38 819.596 1387.35 819.456C1387.31 819.305 1387.28 819.165 1387.24 819.036C1387.21 818.907 1387.18 818.816 1387.16 818.763C1387.08 818.619 1387 818.498 1386.92 818.4C1386.85 818.3 1386.76 818.224 1386.66 818.173C1386.58 818.121 1386.47 818.093 1386.35 818.092C1386.22 818.079 1386.07 818.087 1385.9 818.116C1385.76 818.138 1385.6 818.177 1385.39 818.234C1385.2 818.289 1385 818.355 1384.8 818.433C1384.6 818.512 1384.42 818.599 1384.24 818.695C1384.07 818.792 1383.95 818.89 1383.89 818.99L1384.66 823.826C1384.63 823.786 1384.56 823.775 1384.45 823.794C1384.36 823.81 1384.28 823.822 1384.24 823.829C1383.91 823.884 1383.58 823.957 1383.23 824.048C1382.89 824.128 1382.56 824.217 1382.23 824.316C1381.88 823.051 1381.54 821.79 1381.22 820.53C1380.89 819.271 1380.55 818.01 1380.2 816.745C1380.41 816.698 1380.63 816.656 1380.85 816.62C1381.07 816.572 1381.28 816.53 1381.5 816.494C1381.78 816.446 1382.07 816.41 1382.36 816.384C1382.65 816.346 1382.95 816.309 1383.23 816.272L1383.56 817.514C1383.78 816.961 1384.12 816.471 1384.59 816.045C1385.06 815.619 1385.59 815.356 1386.19 815.256C1386.5 815.205 1386.82 815.168 1387.15 815.146C1387.48 815.125 1387.81 815.138 1388.12 815.187C1388.44 815.234 1388.75 815.323 1389.04 815.454C1389.34 815.583 1389.6 815.769 1389.84 816.011C1389.95 816.127 1390.05 816.312 1390.15 816.565C1390.25 816.805 1390.36 817.085 1390.46 817.405C1390.55 817.715 1390.64 818.048 1390.72 818.404C1390.82 818.759 1390.9 819.099 1390.96 819.425C1391.03 819.75 1391.08 820.05 1391.13 820.323C1391.18 820.583 1391.22 820.784 1391.25 820.926ZM1403.6 817.903C1403.68 818.362 1403.75 818.821 1403.81 819.282C1403.89 819.729 1403.96 820.182 1404.04 820.641C1404.07 820.883 1404.11 821.129 1404.15 821.38C1404.2 821.63 1404.24 821.882 1404.26 822.136C1404.26 822.382 1404.27 822.644 1404.29 822.922C1404.3 823.19 1404.29 823.461 1404.25 823.736C1404.22 824.01 1404.16 824.273 1404.07 824.524C1403.98 824.774 1403.85 824.998 1403.67 825.196C1403.63 825.249 1403.52 825.305 1403.37 825.365C1403.21 825.425 1403.02 825.49 1402.81 825.559C1402.6 825.628 1402.37 825.695 1402.12 825.759C1401.87 825.822 1401.63 825.879 1401.41 825.928C1401.18 825.988 1400.98 826.039 1400.79 826.081C1400.61 826.134 1400.48 826.167 1400.4 826.18C1399.72 826.316 1399.04 826.447 1398.37 826.57C1397.7 826.693 1397.03 826.811 1396.34 826.926L1395.29 827.101C1395.24 826.919 1395.18 826.732 1395.13 826.539C1395.07 826.346 1395.03 826.151 1395 825.955C1394.96 825.736 1394.9 825.516 1394.82 825.294C1394.74 825.061 1394.65 824.835 1394.55 824.615L1395.64 824.451C1395.7 824.44 1395.88 824.41 1396.18 824.36C1396.48 824.298 1396.84 824.234 1397.24 824.166C1397.64 824.088 1398.07 824.005 1398.53 823.918C1398.99 823.817 1399.42 823.718 1399.81 823.62C1400.2 823.521 1400.52 823.427 1400.79 823.338C1401.06 823.247 1401.21 823.172 1401.24 823.112C1401.3 822.955 1401.33 822.788 1401.32 822.609C1401.31 822.42 1401.3 822.244 1401.27 822.08C1401.25 821.993 1401.23 821.906 1401.21 821.821C1401.19 821.722 1401.17 821.631 1401.15 821.545C1400.54 821.691 1399.94 821.83 1399.35 821.963C1398.75 822.096 1398.14 822.215 1397.52 822.319C1397.38 822.342 1397.2 822.372 1396.98 822.409C1396.77 822.443 1396.55 822.474 1396.32 822.502C1396.1 822.527 1395.88 822.547 1395.66 822.562C1395.45 822.575 1395.27 822.57 1395.14 822.549C1394.91 822.519 1394.67 822.486 1394.43 822.448C1394.2 822.397 1393.97 822.328 1393.75 822.241C1393.54 822.153 1393.34 822.041 1393.16 821.902C1392.99 821.751 1392.86 821.56 1392.76 821.329C1392.71 821.215 1392.66 821.087 1392.63 820.947C1392.61 820.805 1392.58 820.674 1392.56 820.554C1392.51 820.249 1392.46 819.858 1392.42 819.383C1392.37 818.909 1392.35 818.425 1392.34 817.931C1392.35 817.426 1392.38 816.949 1392.44 816.501C1392.51 816.041 1392.63 815.684 1392.8 815.431C1392.9 815.28 1393.07 815.134 1393.32 814.992C1393.57 814.848 1393.87 814.715 1394.19 814.593C1394.52 814.471 1394.87 814.357 1395.23 814.251C1395.6 814.133 1395.97 814.033 1396.33 813.951C1396.68 813.869 1397.01 813.798 1397.3 813.738C1397.6 813.676 1397.84 813.63 1398.02 813.601C1398.63 813.499 1399.24 813.413 1399.86 813.344L1399.8 812.277L1402.62 812.227C1402.79 813.175 1402.95 814.118 1403.11 815.057C1403.28 815.994 1403.44 816.943 1403.6 817.903ZM1400.65 818.076C1400.59 817.727 1400.53 817.389 1400.46 817.064C1400.4 816.727 1400.32 816.386 1400.24 816.04C1399.74 816.011 1399.25 816.004 1398.76 816.019C1398.27 816.034 1397.77 816.083 1397.27 816.167C1397.18 816.181 1397.05 816.209 1396.88 816.249C1396.7 816.289 1396.52 816.342 1396.33 816.407C1396.15 816.46 1395.98 816.527 1395.83 816.609C1395.67 816.68 1395.57 816.754 1395.51 816.831C1395.43 816.956 1395.39 817.092 1395.39 817.237C1395.4 817.383 1395.41 817.527 1395.43 817.668C1395.45 817.789 1395.49 817.972 1395.56 818.22C1395.63 818.454 1395.71 818.699 1395.8 818.954C1395.89 819.209 1395.98 819.445 1396.08 819.663C1396.19 819.882 1396.28 820.029 1396.36 820.105C1396.44 820.182 1396.53 820.234 1396.64 820.261C1396.74 820.288 1396.85 820.304 1396.97 820.307C1397.09 820.298 1397.2 820.29 1397.32 820.283C1397.44 820.262 1397.54 820.245 1397.63 820.231C1397.85 820.194 1398.11 820.145 1398.41 820.083C1398.72 820.008 1399.03 819.924 1399.33 819.829C1399.64 819.732 1399.92 819.623 1400.18 819.501C1400.44 819.368 1400.63 819.219 1400.75 819.053C1400.77 819.039 1400.77 818.981 1400.77 818.881C1400.76 818.781 1400.75 818.677 1400.73 818.567C1400.71 818.458 1400.7 818.355 1400.68 818.256C1400.66 818.158 1400.65 818.098 1400.65 818.076ZM1339.25 852.274C1339.27 852.361 1339.28 852.449 1339.3 852.536C1339.31 852.612 1339.32 852.695 1339.32 852.784C1339.34 852.939 1339.35 853.195 1339.37 853.551C1339.38 853.908 1339.38 854.284 1339.37 854.678C1339.35 855.062 1339.32 855.422 1339.26 855.756C1339.21 856.091 1339.12 856.313 1339 856.423C1338.95 856.477 1338.73 856.553 1338.35 856.649C1337.99 856.744 1337.53 856.853 1336.99 856.977C1336.46 857.099 1335.88 857.224 1335.25 857.352C1334.62 857.479 1334.02 857.602 1333.45 857.721C1332.88 857.826 1332.38 857.921 1331.95 858.005C1331.52 858.087 1331.24 858.14 1331.1 858.164C1331.03 858.174 1330.92 858.194 1330.75 858.221C1330.6 858.246 1330.44 858.274 1330.26 858.303C1330.09 858.321 1329.92 858.338 1329.77 858.352C1329.61 858.367 1329.5 858.369 1329.43 858.358C1329.27 858.329 1329.1 858.267 1328.93 858.172C1328.75 858.067 1328.59 857.949 1328.43 857.818C1328.27 857.676 1328.13 857.532 1327.99 857.387C1327.86 857.228 1327.76 857.077 1327.69 856.931C1327.64 856.816 1327.58 856.641 1327.52 856.404C1327.46 856.157 1327.4 855.903 1327.34 855.643C1327.29 855.372 1327.23 855.112 1327.18 854.862C1327.14 854.611 1327.11 854.42 1327.08 854.289C1327.05 854.082 1327.01 853.797 1326.96 853.435C1326.91 853.062 1326.88 852.68 1326.87 852.289C1326.86 851.898 1326.88 851.53 1326.92 851.186C1326.97 850.829 1327.09 850.569 1327.26 850.405C1327.34 850.336 1327.49 850.26 1327.73 850.176C1327.96 850.092 1328.24 850.007 1328.56 849.919C1328.88 849.832 1329.23 849.752 1329.6 849.679C1329.96 849.595 1330.32 849.524 1330.67 849.465C1331.03 849.394 1331.36 849.333 1331.67 849.282C1331.97 849.231 1332.22 849.196 1332.41 849.176C1332.57 849.159 1332.81 849.131 1333.12 849.091C1333.42 849.04 1333.76 848.989 1334.14 848.938C1334.52 848.885 1334.92 848.841 1335.33 848.806C1335.73 848.761 1336.11 848.73 1336.47 848.716C1336.83 848.701 1337.14 848.71 1337.42 848.743C1337.7 848.763 1337.9 848.815 1338 848.898C1338.17 849.027 1338.32 849.237 1338.46 849.529C1338.6 849.82 1338.72 850.136 1338.82 850.478C1338.93 850.808 1339.02 851.14 1339.09 851.477C1339.16 851.801 1339.22 852.067 1339.25 852.274ZM1335.84 853.198C1335.82 853.067 1335.79 852.915 1335.75 852.742C1335.71 852.569 1335.66 852.397 1335.61 852.226C1335.56 852.044 1335.5 851.875 1335.42 851.718C1335.35 851.551 1335.27 851.418 1335.19 851.32C1335.08 851.193 1334.89 851.112 1334.63 851.077C1334.36 851.043 1334.08 851.035 1333.76 851.053C1333.46 851.058 1333.16 851.08 1332.87 851.119C1332.58 851.155 1332.37 851.185 1332.23 851.209C1332.15 851.222 1332.01 851.25 1331.82 851.294C1331.62 851.327 1331.42 851.367 1331.2 851.414C1330.99 851.46 1330.8 851.514 1330.62 851.578C1330.44 851.631 1330.32 851.678 1330.27 851.72C1330.19 851.802 1330.13 851.918 1330.1 852.069C1330.06 852.209 1330.05 852.364 1330.04 852.533C1330.05 852.701 1330.06 852.867 1330.07 853.033C1330.1 853.186 1330.12 853.311 1330.14 853.409C1330.15 853.508 1330.19 853.687 1330.24 853.947C1330.31 854.195 1330.37 854.464 1330.44 854.755C1330.52 855.033 1330.61 855.289 1330.69 855.522C1330.77 855.755 1330.85 855.898 1330.93 855.953C1331.02 856.027 1331.18 856.075 1331.39 856.095C1331.62 856.113 1331.86 856.124 1332.1 856.127C1332.36 856.118 1332.61 856.105 1332.84 856.089C1333.07 856.061 1333.23 856.04 1333.33 856.023C1333.51 855.994 1333.71 855.954 1333.95 855.903C1334.19 855.852 1334.43 855.784 1334.66 855.701C1334.9 855.615 1335.13 855.516 1335.33 855.403C1335.54 855.29 1335.7 855.157 1335.8 855.004C1335.87 854.915 1335.91 854.79 1335.93 854.63C1335.95 854.47 1335.95 854.301 1335.94 854.123C1335.94 853.944 1335.92 853.773 1335.89 853.61C1335.87 853.433 1335.86 853.296 1335.84 853.198ZM1352.68 850.957C1352.71 851.11 1352.73 851.28 1352.75 851.467C1352.78 851.642 1352.8 851.825 1352.79 852.016C1352.8 852.205 1352.79 852.392 1352.77 852.575C1352.75 852.746 1352.71 852.905 1352.65 853.05C1352.51 853.354 1352.37 853.618 1352.24 853.842C1352.11 854.055 1351.95 854.243 1351.78 854.407C1351.61 854.558 1351.42 854.692 1351.19 854.808C1350.96 854.925 1350.69 855.032 1350.37 855.131C1349.89 855.289 1349.42 855.441 1348.95 855.587C1348.48 855.722 1347.99 855.83 1347.5 855.912C1347.28 855.949 1347.06 855.975 1346.83 855.992C1346.59 856.008 1346.37 855.973 1346.15 855.885C1346.03 855.849 1345.9 855.798 1345.76 855.733C1345.62 855.654 1345.48 855.576 1345.35 855.498C1345.21 855.409 1345.07 855.325 1344.93 855.247C1344.81 855.156 1344.69 855.08 1344.59 855.018L1345.18 859.144C1344.88 859.217 1344.57 859.274 1344.27 859.314C1343.96 859.365 1343.65 859.417 1343.33 859.47C1343.15 859.501 1342.97 859.531 1342.79 859.56C1342.63 859.598 1342.46 859.638 1342.27 859.68C1342.16 858.734 1342.04 857.794 1341.92 856.861C1341.81 855.915 1341.67 854.978 1341.52 854.05L1341.49 853.853C1341.31 852.816 1341.11 851.789 1340.89 850.772C1340.66 849.755 1340.44 848.732 1340.22 847.702C1340.76 847.567 1341.3 847.439 1341.83 847.317C1342.36 847.195 1342.89 847.066 1343.43 846.931L1343.69 847.78C1344.43 847.567 1345.17 847.37 1345.91 847.19C1346.66 846.997 1347.42 846.836 1348.19 846.709C1348.29 846.692 1348.39 846.675 1348.5 846.657C1348.62 846.626 1348.73 846.613 1348.83 846.619C1349.1 846.629 1349.38 846.656 1349.67 846.697C1349.95 846.728 1350.23 846.789 1350.49 846.88C1350.75 846.971 1350.99 847.105 1351.21 847.281C1351.43 847.447 1351.61 847.663 1351.76 847.93C1351.86 848.138 1351.96 848.368 1352.06 848.621C1352.16 848.874 1352.25 849.139 1352.33 849.418C1352.4 849.685 1352.47 849.954 1352.53 850.226C1352.59 850.484 1352.65 850.728 1352.68 850.957ZM1349.41 851.201C1349.39 851.07 1349.35 850.93 1349.31 850.781C1349.26 850.631 1349.18 850.515 1349.08 850.431C1348.82 850.217 1348.51 850.071 1348.16 849.995C1347.81 849.908 1347.48 849.891 1347.16 849.943C1346.9 849.987 1346.62 850.062 1346.32 850.167C1346.03 850.262 1345.73 850.379 1345.44 850.517C1345.15 850.645 1344.86 850.787 1344.59 850.946C1344.31 851.093 1344.06 851.236 1343.83 851.375L1344.35 853.544C1344.77 853.597 1345.22 853.634 1345.7 853.656C1346.18 853.676 1346.63 853.651 1347.05 853.582C1347.16 853.563 1347.33 853.541 1347.56 853.513C1347.79 853.475 1348.02 853.43 1348.26 853.379C1348.51 853.315 1348.73 853.25 1348.93 853.182C1349.14 853.113 1349.28 853.03 1349.33 852.931C1349.37 852.857 1349.4 852.745 1349.42 852.596C1349.44 852.435 1349.45 852.271 1349.46 852.102C1349.46 851.921 1349.46 851.754 1349.44 851.599C1349.44 851.432 1349.43 851.299 1349.41 851.201ZM1362.7 852.046L1362.9 854.974C1362.55 855.054 1362.21 855.129 1361.86 855.198C1361.51 855.278 1361.17 855.348 1360.82 855.406C1360.63 855.437 1360.38 855.472 1360.08 855.513C1359.77 855.553 1359.45 855.589 1359.12 855.622C1358.79 855.644 1358.47 855.658 1358.17 855.663C1357.86 855.658 1357.62 855.632 1357.43 855.584C1357.15 855.508 1356.9 855.386 1356.69 855.219C1356.5 855.05 1356.33 854.86 1356.18 854.649C1356.03 854.427 1355.9 854.19 1355.79 853.939C1355.68 853.677 1355.59 853.418 1355.51 853.161C1355.43 852.916 1355.36 852.653 1355.29 852.373C1355.23 852.08 1355.17 851.781 1355.11 851.477C1355.06 851.172 1355.01 850.877 1354.96 850.593C1354.91 850.298 1354.87 850.026 1354.83 849.774L1354.74 849.283L1353.73 849.453C1353.69 848.954 1353.63 848.465 1353.55 847.984C1353.48 847.502 1353.43 847.012 1353.39 846.513L1354.38 846.382L1353.97 843.959C1354.62 843.975 1355.24 843.937 1355.86 843.846C1356.48 843.742 1357.1 843.66 1357.73 843.6L1358.12 846.111L1359.51 845.963C1359.52 846.039 1359.53 846.11 1359.54 846.176C1359.57 846.24 1359.58 846.31 1359.6 846.386C1359.65 846.692 1359.67 846.996 1359.66 847.3C1359.67 847.591 1359.66 847.891 1359.63 848.198L1358.43 848.398C1358.5 848.904 1358.56 849.409 1358.64 849.912C1358.71 850.416 1358.79 850.92 1358.87 851.422C1358.91 851.662 1358.95 851.879 1359 852.074C1359.05 852.256 1359.12 852.407 1359.21 852.527C1359.31 852.645 1359.44 852.723 1359.62 852.762C1359.79 852.8 1360.03 852.794 1360.32 852.745C1360.73 852.678 1361.12 852.583 1361.52 852.461C1361.91 852.339 1362.31 852.2 1362.7 852.046ZM1364.22 843.511C1364.25 843.729 1364.24 843.945 1364.17 844.157C1364.12 844.358 1364.02 844.542 1363.88 844.712C1363.75 844.879 1363.59 845.023 1363.41 845.143C1363.23 845.252 1363.04 845.323 1362.84 845.356C1362.62 845.392 1362.41 845.378 1362.19 845.313C1361.99 845.245 1361.81 845.147 1361.64 845.018C1361.47 844.889 1361.33 844.732 1361.22 844.549C1361.11 844.354 1361.04 844.153 1361.01 843.946C1360.97 843.738 1360.98 843.541 1361.03 843.353C1361.08 843.153 1361.16 842.977 1361.27 842.824C1361.39 842.669 1361.53 842.539 1361.7 842.433C1361.87 842.326 1362.06 842.255 1362.27 842.22C1362.47 842.186 1362.68 842.196 1362.89 842.25C1363.11 842.292 1363.31 842.376 1363.49 842.504C1363.68 842.618 1363.84 842.766 1363.97 842.946C1364.1 843.115 1364.18 843.303 1364.22 843.511ZM1365.35 846.182C1365.39 846.77 1365.45 847.35 1365.51 847.923C1365.57 848.497 1365.63 849.07 1365.69 849.643C1365.76 850.316 1365.8 850.989 1365.8 851.662C1365.81 852.334 1365.8 853.008 1365.78 853.685L1363.32 854.365C1363.26 854.016 1363.2 853.672 1363.15 853.334C1363.1 852.993 1363.05 852.649 1362.99 852.299C1362.84 851.404 1362.67 850.512 1362.49 849.622C1362.31 848.732 1362.13 847.843 1361.95 846.953C1362.52 846.834 1363.08 846.707 1363.63 846.57C1364.19 846.432 1364.77 846.302 1365.35 846.182ZM1379.49 845.555C1379.5 845.643 1379.52 845.73 1379.53 845.817C1379.54 845.894 1379.55 845.977 1379.56 846.066C1379.57 846.22 1379.58 846.476 1379.6 846.833C1379.61 847.189 1379.61 847.565 1379.6 847.96C1379.59 848.344 1379.55 848.703 1379.5 849.038C1379.44 849.373 1379.35 849.595 1379.24 849.704C1379.18 849.759 1378.96 849.834 1378.58 849.931C1378.22 850.026 1377.77 850.135 1377.23 850.259C1376.7 850.381 1376.12 850.506 1375.49 850.633C1374.86 850.761 1374.26 850.884 1373.68 851.002C1373.11 851.108 1372.61 851.203 1372.18 851.287C1371.76 851.369 1371.47 851.421 1371.33 851.445C1371.27 851.456 1371.15 851.475 1370.99 851.503C1370.83 851.528 1370.67 851.555 1370.5 851.585C1370.32 851.603 1370.15 851.619 1370 851.634C1369.84 851.648 1369.73 851.65 1369.66 851.639C1369.5 851.61 1369.33 851.549 1369.16 851.454C1368.99 851.348 1368.82 851.23 1368.66 851.099C1368.51 850.957 1368.36 850.814 1368.22 850.668C1368.09 850.51 1368 850.358 1367.93 850.213C1367.87 850.098 1367.82 849.922 1367.75 849.686C1367.69 849.438 1367.63 849.185 1367.58 848.924C1367.52 848.653 1367.47 848.393 1367.41 848.144C1367.37 847.893 1367.34 847.702 1367.32 847.571C1367.28 847.363 1367.24 847.079 1367.19 846.717C1367.14 846.344 1367.11 845.961 1367.1 845.57C1367.09 845.179 1367.11 844.812 1367.15 844.468C1367.21 844.111 1367.32 843.851 1367.49 843.687C1367.57 843.618 1367.73 843.541 1367.96 843.458C1368.19 843.374 1368.47 843.288 1368.79 843.201C1369.11 843.113 1369.46 843.033 1369.83 842.96C1370.2 842.876 1370.56 842.805 1370.9 842.747C1371.26 842.676 1371.6 842.615 1371.9 842.564C1372.21 842.513 1372.45 842.477 1372.64 842.457C1372.81 842.441 1373.04 842.412 1373.35 842.372C1373.66 842.321 1374 842.27 1374.37 842.219C1374.75 842.166 1375.15 842.123 1375.56 842.088C1375.97 842.042 1376.35 842.012 1376.7 841.997C1377.06 841.983 1377.38 841.992 1377.65 842.024C1377.94 842.044 1378.13 842.096 1378.23 842.18C1378.4 842.309 1378.55 842.519 1378.69 842.81C1378.83 843.101 1378.95 843.418 1379.05 843.76C1379.16 844.089 1379.25 844.422 1379.32 844.759C1379.4 845.082 1379.45 845.348 1379.49 845.555ZM1376.07 846.479C1376.05 846.348 1376.02 846.196 1375.98 846.023C1375.94 845.85 1375.89 845.679 1375.84 845.508C1375.79 845.326 1375.73 845.156 1375.66 845C1375.58 844.833 1375.51 844.7 1375.42 844.602C1375.31 844.474 1375.12 844.393 1374.86 844.359C1374.6 844.324 1374.31 844.316 1374 844.334C1373.7 844.34 1373.4 844.362 1373.1 844.4C1372.81 844.437 1372.6 844.467 1372.46 844.491C1372.38 844.503 1372.25 844.532 1372.05 844.575C1371.86 844.608 1371.65 844.648 1371.43 844.696C1371.23 844.741 1371.03 844.796 1370.85 844.859C1370.67 844.912 1370.56 844.96 1370.51 845.002C1370.42 845.083 1370.36 845.2 1370.33 845.351C1370.3 845.491 1370.28 845.646 1370.27 845.815C1370.28 845.982 1370.29 846.149 1370.31 846.314C1370.33 846.467 1370.35 846.593 1370.37 846.691C1370.38 846.789 1370.42 846.968 1370.48 847.229C1370.54 847.476 1370.61 847.745 1370.68 848.036C1370.76 848.315 1370.84 848.57 1370.92 848.803C1371.01 849.036 1371.09 849.18 1371.16 849.234C1371.25 849.309 1371.41 849.356 1371.62 849.376C1371.85 849.394 1372.09 849.405 1372.34 849.409C1372.59 849.4 1372.84 849.387 1373.07 849.37C1373.3 849.343 1373.47 849.321 1373.57 849.305C1373.74 849.275 1373.95 849.235 1374.18 849.184C1374.42 849.133 1374.66 849.066 1374.89 848.982C1375.14 848.897 1375.36 848.797 1375.57 848.684C1375.77 848.572 1375.93 848.439 1376.04 848.286C1376.1 848.197 1376.14 848.072 1376.16 847.912C1376.18 847.752 1376.18 847.583 1376.18 847.404C1376.17 847.226 1376.15 847.055 1376.12 846.891C1376.11 846.715 1376.09 846.577 1376.07 846.479ZM1391.01 845.298C1391.06 845.593 1391.11 845.893 1391.16 846.199C1391.21 846.493 1391.24 846.79 1391.27 847.088L1387.66 847.927C1387.61 847.352 1387.55 846.785 1387.48 846.224C1387.42 845.662 1387.34 845.092 1387.24 844.513C1387.23 844.459 1387.22 844.366 1387.19 844.235C1387.17 844.104 1387.14 843.968 1387.11 843.828C1387.07 843.677 1387.04 843.537 1387.01 843.408C1386.97 843.279 1386.95 843.188 1386.93 843.135C1386.85 842.991 1386.76 842.87 1386.68 842.772C1386.61 842.672 1386.52 842.597 1386.42 842.546C1386.34 842.493 1386.23 842.466 1386.11 842.464C1385.98 842.451 1385.83 842.459 1385.66 842.489C1385.53 842.51 1385.36 842.55 1385.15 842.606C1384.96 842.661 1384.77 842.727 1384.57 842.806C1384.36 842.884 1384.18 842.971 1384 843.068C1383.83 843.164 1383.71 843.262 1383.65 843.363L1384.42 848.199C1384.39 848.159 1384.32 848.148 1384.21 848.166C1384.12 848.182 1384.05 848.194 1384 848.201C1383.67 848.256 1383.34 848.329 1382.99 848.42C1382.65 848.5 1382.32 848.59 1382 848.688C1381.64 847.423 1381.3 846.162 1380.98 844.903C1380.65 843.644 1380.31 842.382 1379.96 841.118C1380.17 841.07 1380.39 841.028 1380.61 840.992C1380.83 840.944 1381.04 840.902 1381.26 840.866C1381.55 840.819 1381.83 840.782 1382.12 840.757C1382.42 840.718 1382.71 840.681 1382.99 840.644L1383.32 841.886C1383.54 841.333 1383.88 840.843 1384.35 840.417C1384.82 839.992 1385.35 839.728 1385.95 839.628C1386.26 839.577 1386.58 839.541 1386.91 839.519C1387.24 839.497 1387.57 839.51 1387.88 839.559C1388.2 839.607 1388.51 839.696 1388.8 839.827C1389.1 839.956 1389.37 840.141 1389.6 840.383C1389.71 840.499 1389.81 840.684 1389.91 840.937C1390.02 841.177 1390.12 841.457 1390.22 841.778C1390.31 842.087 1390.4 842.42 1390.48 842.776C1390.58 843.131 1390.66 843.471 1390.72 843.797C1390.79 844.123 1390.84 844.422 1390.89 844.695C1390.94 844.955 1390.98 845.156 1391.01 845.298ZM1403.87 840.559C1404.02 841.476 1404.14 842.393 1404.22 843.31C1404.31 844.227 1404.4 845.144 1404.48 846.061C1403.28 846.374 1402.08 846.67 1400.88 846.949C1399.68 847.228 1398.47 847.469 1397.24 847.673C1397.13 847.692 1396.93 847.725 1396.64 847.774C1396.34 847.813 1396.03 847.854 1395.7 847.898C1395.37 847.93 1395.05 847.961 1394.76 847.988C1394.45 848.004 1394.25 847.994 1394.14 847.955C1393.75 847.819 1393.46 847.615 1393.27 847.344C1393.07 847.062 1392.95 846.73 1392.88 846.348C1392.86 846.217 1392.84 846.042 1392.81 845.822C1392.79 845.601 1392.77 845.368 1392.76 845.123C1392.75 844.877 1392.76 844.646 1392.78 844.43C1392.8 844.213 1392.84 844.049 1392.9 843.938C1392.98 843.791 1393.18 843.644 1393.52 843.499C1393.85 843.342 1394.25 843.196 1394.72 843.062C1395.21 842.925 1395.72 842.794 1396.27 842.668C1396.84 842.541 1397.37 842.428 1397.88 842.332C1398.39 842.224 1398.85 842.137 1399.25 842.069C1399.66 842.002 1399.95 841.954 1400.12 841.925C1400.11 841.679 1400.09 841.441 1400.05 841.212C1400.05 841.19 1400.04 841.136 1400.03 841.048C1400.01 840.95 1399.99 840.891 1399.98 840.871C1399.94 840.811 1399.82 840.774 1399.64 840.759C1399.46 840.745 1399.24 840.748 1398.97 840.77C1398.71 840.791 1398.43 840.821 1398.13 840.861C1397.83 840.888 1397.54 840.926 1397.25 840.973C1396.97 841.02 1396.72 841.062 1396.5 841.099C1396.28 841.135 1396.12 841.162 1396.02 841.178C1395.34 841.293 1394.65 841.424 1393.97 841.572C1393.29 841.708 1392.6 841.845 1391.92 841.982C1391.89 841.56 1391.85 841.134 1391.81 840.704C1391.77 840.273 1391.7 839.852 1391.61 839.441C1392.38 839.166 1393.16 838.935 1393.95 838.747C1394.75 838.546 1395.56 838.378 1396.38 838.241C1396.67 838.192 1396.99 838.144 1397.34 838.096C1397.69 838.038 1398.05 837.99 1398.4 837.954C1398.75 837.907 1399.1 837.871 1399.44 837.847C1399.8 837.822 1400.12 837.812 1400.43 837.817C1400.74 837.82 1401.06 837.869 1401.38 837.961C1401.71 838.052 1402.02 838.179 1402.32 838.343C1402.61 838.507 1402.88 838.709 1403.13 838.949C1403.37 839.178 1403.56 839.438 1403.69 839.729C1403.71 839.76 1403.72 839.814 1403.74 839.89C1403.76 839.965 1403.78 840.051 1403.8 840.149C1403.81 840.237 1403.83 840.319 1403.84 840.395C1403.85 840.471 1403.86 840.526 1403.87 840.559ZM1400.86 845.017L1400.51 842.921C1400.19 842.963 1399.87 843.01 1399.55 843.063C1399.24 843.105 1398.92 843.152 1398.6 843.205C1398.54 843.216 1398.35 843.252 1398.05 843.314C1397.75 843.364 1397.43 843.428 1397.09 843.508C1396.75 843.587 1396.45 843.666 1396.17 843.746C1395.89 843.826 1395.73 843.903 1395.7 843.976C1395.66 844.072 1395.64 844.171 1395.63 844.273C1395.64 844.362 1395.65 844.456 1395.66 844.554C1395.68 844.631 1395.7 844.733 1395.73 844.863C1395.76 844.992 1395.8 845.126 1395.85 845.264C1395.91 845.4 1395.96 845.526 1396.01 845.64C1396.07 845.755 1396.12 845.835 1396.19 845.88C1396.24 845.928 1396.32 845.96 1396.42 845.976C1396.53 845.98 1396.65 845.982 1396.78 845.984C1396.9 845.975 1397.02 845.966 1397.14 845.957C1397.26 845.937 1397.36 845.921 1397.42 845.91C1397.68 845.866 1397.96 845.809 1398.25 845.738C1398.55 845.665 1398.85 845.592 1399.16 845.519C1399.47 845.434 1399.77 845.35 1400.06 845.268C1400.34 845.175 1400.61 845.091 1400.86 845.017ZM1408.24 834.477C1408.33 835.55 1408.41 836.618 1408.5 837.681C1408.6 838.741 1408.71 839.806 1408.83 840.874C1408.94 841.844 1409.04 842.809 1409.13 843.769C1409.23 844.717 1409.34 845.676 1409.44 846.646L1406.96 847.195C1406.79 846.202 1406.63 845.219 1406.47 844.248C1406.31 843.264 1406.14 842.277 1405.96 841.287C1405.77 840.297 1405.56 839.322 1405.33 838.361C1405.1 837.39 1404.87 836.413 1404.64 835.43L1408.24 834.477Z" fill="#98651D"/>
<defs>
<linearGradient id="paint0_linear_7_374" x1="720" y1="0" x2="720" y2="575" gradientUnits="userSpaceOnUse">
<stop stop-color="#CBE6F6"/>
<stop offset="1" stop-color="#F0ECD6"/>
</linearGradient>
<linearGradient id="paint1_linear_7_374" x1="1252" y1="226" x2="1253.5" y2="359.5" gradientUnits="userSpaceOnUse">
<stop stop-color="#FFFDE8"/>
<stop offset="1" stop-color="#FFFDE8" stop-opacity="0.5"/>
</linearGradient>
<linearGradient id="paint2_linear_7_374" x1="1010.59" y1="359" x2="1011.76" y2="446.5" gradientUnits="userSpaceOnUse">
<stop stop-color="#FFFDE8"/>
<stop offset="1" stop-color="#FFFDE8" stop-opacity="0.5"/>
</linearGradient>
<linearGradient id="paint3_linear_7_374" x1="357.593" y1="276" x2="358.756" y2="363.5" gradientUnits="userSpaceOnUse">
<stop stop-color="#FFFDE8"/>
<stop offset="1" stop-color="#FFFDE8" stop-opacity="0.5"/>
</linearGradient>
<linearGradient id="paint4_linear_7_374" x1="32" y1="339" x2="33.5" y2="472.5" gradientUnits="userSpaceOnUse">
<stop stop-color="#FFFDE8"/>
<stop offset="1" stop-color="#FFFDE8" stop-opacity="0.5"/>
</linearGradient>
<linearGradient id="paint5_linear_7_374" x1="7.5" y1="0" x2="7.5" y2="101" gradientUnits="userSpaceOnUse">
<stop stop-color="#926E35"/>
<stop offset="0.278846" stop-color="#FFD99D"/>
</linearGradient>
</defs>
</svg>
